<?xml version="1.0" encoding="UTF-8" standalone="no"?>
<!DOCTYPE svg PUBLIC "-//W3C//DTD SVG 1.1//EN" "http://www.w3.org/Graphics/SVG/1.1/DTD/svg11.dtd">
<svg width="783px" height="1159px" version="1.1" xmlns="http://www.w3.org/2000/svg" xmlns:xlink="http://www.w3.org/1999/xlink" xml:space="preserve" xmlns:serif="http://www.serif.com/" style="fill-rule:evenodd;clip-rule:evenodd;stroke-linejoin:round;stroke-miterlimit:2;">
    <path d="M-0.503,-0.269L0.561,253.116L0.064,700.569L-0.567,843.282L-0.503,1159.1L393.721,1159.17L409.9,1156.83L418.65,1154.83L426.65,1152.08L435.15,1149.08L449.15,1144.08L457.65,1139.58L465.9,1134.83L473.15,1130.08L478.65,1126.58L484.15,1122.58L490.15,1117.08L496.65,1110.58L502.4,1104.08L507.9,1097.58L515.15,1087.58L524.65,1071.08L533.65,1056.58L698.984,768L721.65,728.667L759.65,662L766.139,650.967L770.406,642.234L773.739,634.167L776.739,623.834L779.406,614.167L781.073,606.834L782.139,600.767L782.739,591.5L783.073,584.5L783.073,568.5L782.206,559.5L780.406,549.834L778.073,537.5L775.406,529.167L772.806,522.034L769.739,513.834L765.005,504.119L758.406,492.3L753.406,483.167L745.073,469.167L737.406,455.5L565.239,156.084L541.739,115.084L528.239,91.584L517.739,75.084L510.139,64.184L505.677,57.959L500.177,51.459L495.927,46.959L492.177,43.209L486.677,38.459L480.927,33.709L476.677,30.709L472.177,26.959L464.427,22.709L457.677,18.909L451.927,16.209L447.427,13.959L440.177,10.459L430.927,7.309L423.127,5.209L416.927,3.459L409.427,2.209L403.927,1.259L391.102,-0.57L-0.503,-0.269Z" style="fill:rgb(235,26,65);fill-opacity:0.8;"/>
</svg>
