<?xml version="1.0" encoding="UTF-8" standalone="no"?>
<!DOCTYPE svg PUBLIC "-//W3C//DTD SVG 1.1//EN" "http://www.w3.org/Graphics/SVG/1.1/DTD/svg11.dtd">
<svg width="100%" height="100%" viewBox="0 0 188 396" version="1.1" xmlns="http://www.w3.org/2000/svg" xmlns:xlink="http://www.w3.org/1999/xlink" xml:space="preserve" xmlns:serif="http://www.serif.com/" style="fill-rule:evenodd;clip-rule:evenodd;stroke-linejoin:round;stroke-miterlimit:2;">
    <g transform="matrix(0.99674,0,0,1.00206,1.21912,-19.0776)">
        <path d="M166.129,19.636L161.084,20.962L154.846,22.805L148.467,25.356L141.095,28.9L135.85,32.87L128.904,39.958L122.666,47.046L115.72,56.827L109.199,64.908L102.536,73.839L93.889,84.896L83.824,97.797L68.371,118.068L56.038,133.662L46.54,146.563L36.192,159.746L25.985,172.93L13.826,188.241L9.856,193.769L7.304,197.172L5.462,200.29L3.902,203.125L2.485,206.244L1.492,209.93L0.925,213.899L0.925,216.026L0.783,218.719L0.925,220.704L1.35,222.547L2.201,226.091L3.193,228.359L4.327,230.911L7.163,235.022L10.707,240.267L15.385,246.363L24.174,257.562L31.829,267.485L38.35,275.849L51.392,293.144L64.576,309.73L82.013,332.696L90.944,344.604L101.718,358.496L119.438,381.32L126.384,389.684L132.197,396.205L134.89,399.465L137.867,401.592L140.419,403.435L143.254,404.994L146.514,406.979L150.626,408.963L154.453,410.665L158.174,411.799L161.576,412.508L165.971,413.5L171.5,413.925L178.304,414.067L188.086,414.067L188.086,19.119L185.392,18.977L177.454,18.835L171.641,18.835L166.129,19.636Z" style="fill:rgb(0,52,79);"/>
    </g>
</svg>
